<?xml version="1.0" standalone="no"?>
<!DOCTYPE svg PUBLIC "-//W3C//DTD SVG 20010904//EN"
 "http://www.w3.org/TR/2001/REC-SVG-20010904/DTD/svg10.dtd">
<svg version="1.0" xmlns="http://www.w3.org/2000/svg"
 width="676.000000pt" height="713.000000pt" viewBox="0 0 676.000000 713.000000"
 preserveAspectRatio="xMidYMid meet">

<g transform="translate(0.000000,713.000000) scale(0.100000,-0.100000)"
fill="#000000" stroke="none">
<path d="M2538 7093 c7 -3 16 -2 19 1 4 3 -2 6 -13 5 -11 0 -14 -3 -6 -6z"/>
<path d="M2463 7083 c9 -2 23 -2 30 0 6 3 -1 5 -18 5 -16 0 -22 -2 -12 -5z"/>
<path d="M1984 6934 c-18 -14 -18 -14 6 -3 31 14 36 19 24 19 -6 0 -19 -7 -30
-16z"/>
<path d="M1874 6881 c-39 -21 -80 -46 -90 -55 -10 -8 -28 -23 -39 -31 -19 -15
-19 -16 5 -4 14 6 32 18 41 25 8 8 51 34 95 59 96 55 87 60 -12 6z"/>
<path d="M4330 6801 c14 -12 34 -27 45 -33 17 -9 18 -9 8 3 -6 8 -26 22 -45
32 l-33 19 25 -21z"/>
<path d="M4410 6747 c23 -22 163 -120 156 -108 -4 6 -28 25 -54 43 -26 18 -53
38 -60 45 -8 7 -23 18 -35 24 -20 10 -20 10 -7 -4z"/>
<path d="M1640 6719 c-22 -18 -22 -19 -3 -10 12 6 25 16 28 21 9 15 3 12 -25
-11z"/>
<path d="M1659 6608 c-61 -69 -165 -224 -224 -333 -21 -38 -44 -79 -51 -90 -7
-11 -40 -81 -74 -155 -34 -74 -78 -170 -97 -213 -20 -42 -33 -80 -30 -84 4 -3
16 16 28 43 85 197 202 445 229 484 9 14 42 68 73 120 56 94 90 140 175 239
24 28 40 51 35 51 -5 0 -34 -28 -64 -62z"/>
<path d="M1325 6448 l-50 -53 53 50 c28 27 52 51 52 52 0 8 -9 -1 -55 -49z"/>
<path d="M3394 6403 c-23 -52 -53 -130 -116 -303 -34 -95 -260 -566 -278 -580
-3 -3 -21 -34 -39 -70 -19 -36 -63 -114 -99 -175 -35 -60 -83 -141 -106 -180
-22 -38 -59 -98 -81 -132 -22 -34 -60 -94 -85 -134 -25 -39 -73 -115 -107
-168 -35 -53 -64 -99 -65 -103 -2 -4 -15 -4 -29 0 l-26 7 59 140 c188 445 261
601 389 832 54 98 163 334 205 443 38 97 77 257 59 239 -2 -3 -16 -50 -31
-105 -14 -54 -30 -103 -34 -109 -4 -5 -11 -21 -15 -35 -22 -72 -139 -317 -229
-480 -90 -161 -206 -391 -206 -407 0 -3 -32 -76 -71 -162 -39 -86 -77 -169
-84 -186 -63 -146 -74 -165 -99 -165 -45 0 -300 40 -309 49 -4 4 3 36 17 70
14 34 20 61 14 59 -15 -5 -44 -100 -75 -248 -24 -113 -27 -150 -29 -380 -2
-140 -8 -291 -14 -335 -6 -44 -12 -100 -13 -125 l-2 -45 -24 40 c-14 22 -35
52 -47 68 -40 48 -130 201 -138 232 -4 17 -13 37 -21 45 -14 17 -55 154 -81
275 -34 153 -17 422 37 595 11 36 22 71 24 78 3 6 1 12 -3 12 -9 0 -36 -91
-67 -229 -23 -103 -39 -243 -51 -453 -3 -60 -9 -108 -13 -108 -5 0 -18 62 -31
138 -30 177 -33 468 -6 637 79 499 204 824 480 1249 39 60 78 116 86 124 13
13 13 15 0 10 -19 -6 -128 -163 -202 -293 -90 -156 -195 -378 -232 -490 -59
-175 -112 -377 -136 -510 -35 -202 -42 -531 -15 -695 44 -262 89 -432 155
-585 9 -22 27 -67 40 -100 13 -33 27 -64 32 -69 4 -6 9 -28 9 -50 1 -23 5 -54
9 -71 4 -16 5 40 2 126 -5 150 2 250 16 248 4 0 30 -35 58 -77 l51 -77 6 -180
c4 -99 13 -218 21 -265 49 -290 52 -307 61 -298 2 2 -5 49 -16 104 -42 205
-76 614 -51 614 5 0 19 -23 32 -51 13 -28 27 -52 30 -54 3 -1 6 46 6 107 1 60
6 114 11 119 10 10 73 -154 73 -192 0 -13 5 -31 10 -39 8 -12 10 -10 10 10 1
69 9 167 15 182 6 15 12 11 34 -22 39 -58 144 -180 154 -180 5 0 2 10 -6 23
-55 77 -113 201 -123 264 -7 44 22 112 102 235 54 84 95 111 239 155 106 34
114 35 230 30 67 -3 138 -12 160 -20 65 -23 133 -75 237 -179 53 -54 102 -98
107 -98 6 0 11 11 11 24 0 16 -26 51 -80 107 -83 87 -94 105 -60 96 11 -3 23
-1 26 5 12 19 -51 57 -146 90 -92 32 -100 33 -260 33 -191 0 -289 -18 -365
-66 -26 -16 -49 -28 -51 -26 -4 4 21 50 117 217 64 111 47 103 180 85 64 -8
155 -26 203 -40 113 -33 243 -57 339 -62 63 -4 77 -8 77 -22 -1 -41 -12 -44
-126 -32 -129 13 -254 14 -254 2 0 -4 69 -11 153 -14 83 -4 164 -9 178 -13
l26 -6 -23 -79 c-13 -44 -28 -88 -34 -99 -6 -11 -7 -20 -2 -20 9 0 73 172 90
240 l8 35 85 2 c95 3 131 14 159 51 38 48 15 86 -25 42 -16 -17 -31 -20 -107
-20 -48 0 -88 3 -88 6 0 4 20 74 44 158 94 321 108 381 145 601 42 243 55 413
55 675 1 209 -3 272 -18 351 -17 88 -17 149 2 149 18 -1 118 -192 162 -308 16
-42 67 -174 113 -292 100 -255 127 -335 166 -495 60 -245 74 -359 75 -610 l1
-230 -31 -3 c-26 -3 -33 1 -38 20 -6 22 -7 22 -20 5 -19 -24 -30 -107 -17
-120 7 -7 21 -7 46 0 l36 11 -6 -46 c-12 -83 -23 -111 -54 -138 -44 -37 -38
-51 7 -16 48 38 95 62 122 62 19 0 28 -15 13 -22 -14 -6 -122 -176 -129 -202
-5 -22 -3 -26 14 -26 22 0 27 5 98 115 53 81 131 165 154 165 9 0 20 4 26 10
5 5 57 17 114 26 119 18 232 14 278 -10 31 -16 82 -74 82 -93 0 -6 9 -28 20
-50 29 -57 71 -163 82 -208 10 -38 7 -47 -51 -168 -62 -129 -93 -208 -86 -215
8 -8 33 26 80 108 54 97 106 180 113 180 7 0 -2 -184 -14 -259 -15 -98 -9
-109 21 -38 10 25 12 37 4 37 -8 0 -10 16 -5 52 11 77 8 368 -4 483 -11 102
-45 289 -79 428 -22 91 -29 81 96 118 46 13 83 27 83 31 0 7 -110 -21 -164
-42 -16 -6 -30 -9 -30 -8 -1 2 -19 55 -40 119 -44 135 -95 248 -94 209 0 -37
12 -71 23 -70 5 1 15 -16 22 -37 7 -21 26 -78 43 -128 l29 -90 -25 -13 c-14
-7 -33 -12 -42 -11 -9 1 -34 -5 -54 -15 -21 -9 -44 -16 -53 -16 -8 0 -23 -4
-33 -10 -25 -13 -170 -46 -290 -65 -57 -9 -129 -25 -159 -36 -31 -10 -60 -19
-65 -19 -6 0 -7 30 -3 73 9 106 -11 426 -34 544 -55 273 -98 426 -183 638 -33
83 -87 219 -119 304 -32 85 -74 185 -94 222 -19 37 -35 71 -35 74 0 15 62 -45
158 -153 58 -64 112 -124 121 -133 9 -8 32 -35 51 -59 19 -24 47 -58 62 -74
62 -72 87 -104 125 -161 73 -109 133 -204 133 -210 0 -3 25 -51 55 -107 31
-56 66 -131 79 -167 13 -36 29 -77 34 -91 55 -131 124 -359 152 -497 7 -35 16
-63 20 -63 16 0 -68 328 -114 452 -110 290 -241 551 -355 708 -109 148 -427
510 -506 575 -24 20 -52 49 -62 65 -9 17 -21 30 -25 30 -5 0 -20 -26 -34 -57z
m16 -115 c22 -89 25 -511 6 -733 -9 -104 -21 -215 -27 -245 -5 -30 -19 -104
-30 -165 -11 -60 -35 -168 -55 -240 -60 -222 -116 -410 -124 -418 -4 -5 -88
-3 -186 4 -99 6 -190 12 -204 12 -14 0 -65 5 -115 13 -49 7 -117 15 -151 19
-33 4 -66 10 -73 14 -13 8 31 90 119 221 96 142 230 362 270 440 12 25 35 63
50 85 45 66 252 461 318 605 54 119 133 314 166 408 6 17 14 32 17 32 3 0 11
-24 19 -52z m1306 -1753 c38 -178 66 -335 61 -348 -2 -6 -25 19 -51 56 -26 37
-67 84 -92 106 -24 21 -44 47 -44 57 0 17 -1 17 -14 -1 -17 -23 -46 -13 -47
17 -2 22 -2 22 -6 2 -4 -20 -11 -22 -126 -26 -97 -4 -140 -11 -207 -33 -47
-15 -92 -33 -100 -40 -24 -20 -77 -45 -97 -45 -10 0 -31 -7 -47 -15 -35 -19
-39 -16 -27 21 5 16 12 45 15 64 l6 36 113 17 c61 9 157 22 212 28 55 6 125
15 155 19 50 7 51 7 15 9 -69 2 -269 -19 -371 -39 -54 -10 -100 -18 -101 -16
-12 12 299 121 457 161 36 9 79 22 95 30 17 7 44 17 60 21 17 4 35 10 40 14
11 9 54 18 69 16 5 -1 19 -51 32 -111z m-2478 28 c50 -4 72 -10 72 -19 0 -8
-54 -119 -119 -248 -108 -213 -179 -367 -195 -422 -4 -14 1 -35 14 -57 18 -31
20 -41 11 -74 -6 -21 -11 -50 -11 -65 0 -16 -4 -28 -10 -28 -5 0 -10 8 -10 18
0 9 -9 40 -20 68 -39 104 -53 449 -26 629 23 146 38 220 48 226 5 3 46 0 91
-8 45 -7 115 -16 155 -20z m151 -22 c12 -8 5 -25 -37 -94 -29 -46 -52 -87 -52
-89 0 -14 -105 -186 -126 -208 l-25 -25 9 25 c5 14 39 84 75 155 36 72 72 148
81 170 16 38 43 75 55 75 3 0 12 -4 20 -9z m-833 -352 c-9 -22 -16 -56 -15
-77 1 -33 3 -30 18 28 9 35 20 60 23 55 3 -6 13 -38 22 -71 19 -75 64 -194 79
-212 10 -13 12 -271 1 -281 -8 -8 -15 7 -50 105 -91 251 -117 387 -94 485 17
70 24 82 28 41 2 -19 -4 -52 -12 -73z"/>
<path d="M4593 4513 c-1 -81 0 -84 7 -33 11 75 12 120 2 120 -4 0 -8 -39 -9
-87z"/>
<path d="M4504 4518 c5 -29 12 -45 14 -35 5 25 -7 87 -17 87 -4 0 -3 -24 3
-52z"/>
<path d="M1214 6331 c-92 -100 -152 -178 -209 -265 -30 -47 -55 -88 -55 -92 0
-3 -13 -36 -30 -74 -46 -106 -36 -96 24 22 73 144 170 285 277 402 28 31 50
58 48 60 -2 2 -27 -22 -55 -53z"/>
<path d="M5030 6187 c0 -4 33 -51 74 -104 40 -54 89 -125 108 -158 69 -121
178 -348 200 -418 14 -44 24 -64 26 -51 4 29 -29 124 -83 235 -25 52 -45 97
-45 101 0 39 426 66 550 34 51 -14 53 -13 32 1 -26 18 -33 19 -184 29 -107 7
-339 -16 -381 -38 -24 -12 -43 4 -69 58 -11 24 -44 80 -74 125 -30 46 -54 85
-54 89 0 3 -9 13 -19 22 -10 9 -23 22 -27 29 -12 18 -54 54 -54 46z"/>
<path d="M5270 6170 c-65 -21 -130 -48 -130 -55 0 -3 29 6 64 19 35 13 89 27
120 31 31 4 56 8 54 10 -15 12 -63 10 -108 -5z"/>
<path d="M4180 6055 c0 -2 31 -60 68 -127 37 -68 80 -148 94 -178 38 -79 125
-308 133 -353 6 -33 25 -63 25 -40 0 16 -78 237 -112 318 -63 147 -208 414
-208 380z"/>
<path d="M1081 5962 c-13 -20 -32 -48 -41 -62 -34 -50 -248 -486 -255 -520 -4
-19 -20 -71 -35 -115 -30 -89 -95 -354 -87 -361 2 -2 17 49 32 113 41 173 115
390 184 538 34 72 66 139 73 150 6 11 36 67 66 125 30 58 66 120 80 138 13 17
20 32 16 32 -5 0 -20 -17 -33 -38z"/>
<path d="M850 5725 c-7 -20 -10 -39 -7 -42 3 -3 10 12 16 33 14 49 7 56 -9 9z"/>
<path d="M1156 5680 c-9 -22 -16 -46 -15 -53 0 -6 9 10 20 37 11 27 18 50 16
53 -3 2 -12 -14 -21 -37z"/>
<path d="M5703 5650 c168 -84 275 -158 350 -244 63 -71 141 -172 164 -211 7
-12 12 -14 13 -6 1 36 -212 292 -275 330 -16 11 -57 36 -90 56 -78 48 -211
115 -227 114 -7 0 22 -18 65 -39z"/>
<path d="M832 5650 c0 -14 2 -19 5 -12 2 6 2 18 0 25 -3 6 -5 1 -5 -13z"/>
<path d="M1103 5533 c-11 -26 -27 -75 -36 -108 -10 -33 -28 -99 -41 -146 -39
-137 -88 -341 -83 -345 2 -3 14 35 27 83 51 196 103 383 131 467 32 98 33 124
2 49z"/>
<path d="M5452 5390 c0 -8 6 -31 13 -50 7 -19 13 -28 13 -20 0 8 -6 31 -13 50
-7 19 -13 28 -13 20z"/>
<path d="M4516 5275 c10 -55 27 -110 31 -99 2 5 -6 37 -17 70 -11 32 -17 46
-14 29z"/>
<path d="M5901 5274 c8 -11 27 -36 42 -55 15 -19 46 -63 69 -99 22 -36 37 -56
34 -46 -13 37 -96 162 -127 191 -20 19 -27 22 -18 9z"/>
<path d="M5512 5140 c0 -14 2 -19 5 -12 2 6 2 18 0 25 -3 6 -5 1 -5 -13z"/>
<path d="M4551 5134 c0 -11 3 -14 6 -6 3 7 2 16 -1 19 -3 4 -6 -2 -5 -13z"/>
<path d="M5526 5055 c4 -27 10 -66 15 -85 6 -25 6 -18 2 25 -3 32 -10 71 -14
85 -5 16 -6 8 -3 -25z"/>
<path d="M6060 5028 c0 -9 4 -19 9 -22 18 -11 90 -203 106 -281 20 -98 38
-383 31 -485 -3 -48 -2 -66 3 -50 13 36 13 352 1 430 -13 85 -35 173 -58 235
-27 71 -91 193 -92 173z"/>
<path d="M5392 4990 c0 -19 2 -27 5 -17 2 9 2 25 0 35 -3 9 -5 1 -5 -18z"/>
<path d="M917 4845 c-18 -76 -41 -245 -33 -252 2 -2 7 20 11 49 8 71 23 154
36 205 6 23 9 47 7 55 -3 7 -12 -19 -21 -57z"/>
<path d="M4584 4881 c3 -18 6 -64 6 -102 0 -45 4 -69 11 -69 16 0 7 158 -10
185 -11 18 -12 16 -7 -14z"/>
<path d="M646 4854 c-4 -14 -5 -28 -3 -31 3 -2 8 8 11 23 4 14 5 28 3 31 -3 2
-8 -8 -11 -23z"/>
<path d="M2066 4846 c-23 -49 -19 -59 5 -13 11 22 18 41 16 43 -2 3 -12 -11
-21 -30z"/>
<path d="M5403 4820 c0 -36 2 -50 4 -32 2 17 2 47 0 65 -2 17 -4 3 -4 -33z"/>
<path d="M5558 4725 c3 -88 6 -162 8 -164 7 -8 2 223 -5 274 -4 28 -5 -22 -3
-110z"/>
<path d="M632 4790 c0 -14 2 -19 5 -12 2 6 2 18 0 25 -3 6 -5 1 -5 -13z"/>
<path d="M616 4729 c-8 -42 0 -50 9 -9 4 17 5 34 2 36 -2 3 -7 -10 -11 -27z"/>
<path d="M4595 4680 c3 -5 8 -10 11 -10 2 0 4 5 4 10 0 6 -5 10 -11 10 -5 0
-7 -4 -4 -10z"/>
<path d="M5402 4620 c0 -14 2 -19 5 -12 2 6 2 18 0 25 -3 6 -5 1 -5 -13z"/>
<path d="M871 4575 c-29 -173 -55 -802 -30 -745 6 15 8 51 4 90 -7 71 8 381
26 525 6 50 9 102 6 115 -2 14 -5 21 -6 15z"/>
<path d="M5397 4493 c-4 -26 -11 -101 -17 -166 -6 -65 -18 -139 -25 -164 -19
-62 -12 -66 14 -8 17 38 23 81 30 213 10 168 9 213 -2 125z"/>
<path d="M5542 4386 c-16 -85 -15 -95 8 -139 11 -20 20 -43 20 -50 0 -8 -31
-70 -69 -140 -38 -69 -71 -138 -75 -154 -3 -15 7 -1 23 32 32 67 77 119 93
109 7 -5 9 1 5 17 -4 16 2 39 18 68 29 51 31 68 8 101 -13 19 -16 44 -15 122
1 54 1 98 -1 98 -2 0 -9 -29 -15 -64z"/>
<path d="M4942 4380 c0 -14 2 -19 5 -12 2 6 2 18 0 25 -3 6 -5 1 -5 -13z"/>
<path d="M2518 4353 c34 -2 90 -2 125 0 34 2 6 3 -63 3 -69 0 -97 -1 -62 -3z"/>
<path d="M4207 4297 c-31 -8 -60 -24 -82 -46 -42 -41 -44 -53 -7 -49 22 2 27
-1 25 -17 -1 -18 -50 -144 -59 -154 -12 -13 -25 23 -26 74 -2 56 -2 57 -19 36
-39 -48 -50 -220 -25 -381 18 -108 38 -163 81 -222 45 -61 83 -80 171 -86 63
-4 75 -2 112 22 184 116 203 615 29 773 -68 61 -109 71 -200 50z m238 -517 c3
-5 -1 -10 -10 -10 -9 0 -13 5 -10 10 3 6 8 10 10 10 2 0 7 -4 10 -10z m-308
-22 c-3 -8 -6 -5 -6 6 -1 11 2 17 5 13 3 -3 4 -12 1 -19z m291 -23 c-3 -14 -1
-25 3 -25 5 0 9 6 9 14 0 7 8 20 17 27 15 12 16 12 11 -2 -4 -9 -10 -38 -13
-64 -17 -110 -90 -185 -182 -185 -45 0 -56 4 -87 34 -50 47 -48 78 5 112 40
25 48 44 12 29 -10 -5 -21 -7 -25 -7 -5 1 -8 -5 -8 -13 0 -17 -26 -20 -35 -5
-10 17 15 40 42 40 13 0 22 4 18 10 -3 5 -12 7 -19 4 -8 -3 -17 0 -21 5 -3 6
-11 9 -16 6 -5 -4 -9 1 -9 9 0 19 36 22 43 4 3 -10 9 -10 26 0 19 11 26 10 52
-13 17 -14 35 -25 40 -25 15 0 107 48 114 60 12 20 27 10 23 -15z"/>
<path d="M4230 3641 c25 -14 70 -22 70 -12 0 12 -26 21 -58 21 -20 -1 -23 -3
-12 -9z"/>
<path d="M4318 3623 c7 -3 16 -2 19 1 4 3 -2 6 -13 5 -11 0 -14 -3 -6 -6z"/>
<path d="M996 4178 c-9 -82 -6 -204 9 -298 l13 -85 -6 90 c-4 50 -6 147 -5
218 1 70 0 127 -1 127 -2 0 -6 -24 -10 -52z"/>
<path d="M2700 4221 c0 -5 11 -11 25 -13 17 -4 25 -1 25 8 0 8 -11 14 -25 14
-14 0 -25 -4 -25 -9z"/>
<path d="M2610 4208 c0 -5 16 -8 35 -8 19 0 35 4 35 9 0 5 -16 9 -35 8 -19 -1
-35 -5 -35 -9z"/>
<path d="M4931 4155 c-3 -126 -50 -359 -91 -452 -11 -25 -20 -53 -20 -62 0 -9
12 11 26 44 14 33 30 68 35 77 5 9 12 36 15 58 4 23 10 38 14 33 11 -12 -41
-428 -66 -524 -21 -83 -18 -86 25 -38 43 49 46 66 4 28 -22 -20 -25 -21 -19
-5 7 20 34 182 62 366 18 120 34 463 23 500 -6 19 -8 13 -8 -25z"/>
<path d="M2600 4173 c-106 -36 -198 -140 -221 -251 -16 -76 -6 -284 15 -334
23 -53 131 -165 188 -194 111 -56 205 -12 304 143 46 73 61 114 75 217 10 71
9 94 -6 162 -9 43 -32 111 -51 149 -29 57 -42 73 -72 86 -95 42 -156 48 -232
22z m-50 -94 c0 -21 -50 -79 -69 -79 -23 0 -10 49 20 74 37 31 49 33 49 5z
m350 -417 c0 -50 -75 -152 -146 -198 -40 -27 -122 -35 -161 -17 -64 30 -117
117 -83 138 5 3 6 13 3 23 -4 9 5 3 20 -14 15 -18 27 -37 27 -43 0 -6 4 -11
10 -11 5 0 7 12 4 28 -6 28 21 72 45 72 6 0 14 7 18 16 4 12 11 8 33 -18 l27
-33 50 31 c37 23 55 29 71 23 32 -12 28 -22 -25 -69 -35 -30 -44 -43 -34 -49
17 -11 107 76 116 112 8 30 25 37 25 9z"/>
<path d="M2670 3540 c0 -5 5 -10 11 -10 5 0 7 5 4 10 -3 6 -8 10 -11 10 -2 0
-4 -4 -4 -10z"/>
<path d="M5721 4164 c0 -11 3 -14 6 -6 3 7 2 16 -1 19 -3 4 -6 -2 -5 -13z"/>
<path d="M5593 4138 c6 -24 20 -104 36 -205 5 -32 10 -87 11 -123 1 -36 7
-123 14 -195 l13 -130 2 110 c1 132 -13 291 -39 439 -11 60 -20 113 -20 118 0
4 -5 8 -11 8 -7 0 -9 -9 -6 -22z"/>
<path d="M5737 4075 c10 -84 11 -355 1 -515 -4 -77 -3 -98 2 -65 5 28 14 122
21 210 10 138 9 179 -5 295 -10 74 -20 137 -23 140 -3 3 -1 -26 4 -65z"/>
<path d="M5291 4007 c-23 -50 -47 -101 -53 -112 -6 -11 -25 -47 -41 -80 -45
-92 -173 -303 -230 -381 -50 -69 -51 -69 -54 -154 -5 -145 -64 -392 -118 -500
-97 -191 -255 -353 -703 -717 -25 -20 -42 -22 -227 -28 -193 -6 -295 -18 -295
-35 0 -5 15 -4 33 2 86 30 737 24 796 -6 24 -13 23 -13 -31 -42 -63 -35 -87
-44 -188 -75 -41 -12 -79 -25 -85 -29 -5 -4 -26 -11 -45 -15 -31 -7 -63 -20
-180 -73 -19 -9 -55 -28 -78 -43 -35 -22 -49 -26 -69 -18 -33 12 -67 11 -35
-1 36 -15 29 -26 -42 -58 -5 -3 -6 0 -2 7 4 6 2 11 -3 11 -6 0 -11 -7 -11 -15
0 -14 -52 -69 -103 -108 -16 -12 -42 -33 -59 -46 -22 -18 -32 -21 -41 -12 -14
14 -47 14 -47 0 0 -6 9 -9 20 -6 11 3 20 1 20 -3 0 -12 -50 -50 -67 -50 -8 0
-20 -15 -28 -34 -8 -19 -25 -42 -37 -50 -17 -12 -20 -18 -10 -28 9 -9 17 -7
36 11 18 17 30 21 47 16 17 -6 21 -4 16 8 -4 11 9 25 44 47 27 16 55 31 60 33
6 1 27 17 47 34 19 18 39 33 44 33 5 0 24 11 42 25 18 14 36 25 40 25 6 0 64
38 76 50 3 3 23 14 45 25 22 11 42 22 45 25 10 10 63 31 67 26 3 -2 -10 -12
-28 -22 -18 -9 -39 -23 -47 -30 -7 -8 -22 -14 -33 -14 -11 0 -19 -7 -19 -16 0
-17 -19 -39 -35 -39 -21 -1 -95 -46 -95 -58 0 -13 -55 -41 -77 -40 -7 1 -13
-8 -13 -18 0 -13 -7 -19 -21 -19 -16 0 -19 -5 -15 -22 3 -13 3 -17 0 -10 -6
13 -34 17 -34 4 0 -4 5 -13 12 -20 8 -8 5 -14 -14 -21 -14 -5 -32 -18 -39 -28
-16 -21 -77 -67 -100 -75 -9 -4 -21 -2 -27 4 -6 6 -15 2 -26 -13 l-16 -23 0
22 c0 13 -6 22 -15 22 -8 0 -15 -5 -15 -11 0 -6 -8 -8 -19 -4 -11 3 -22 1 -26
-5 -4 -7 -17 -2 -35 14 -45 37 -113 59 -166 53 -127 -14 -287 -138 -354 -273
-34 -69 -36 -71 -67 -66 -18 2 -50 -3 -72 -11 l-40 -16 18 42 c10 23 37 83 60
133 22 51 41 105 41 122 0 17 6 33 13 35 7 3 4 6 -6 6 -14 1 -1 21 52 77 39
42 71 80 71 85 0 5 12 9 28 9 16 0 22 3 15 8 -8 5 4 25 37 62 28 30 50 59 50
64 0 4 7 6 15 2 10 -3 17 3 21 18 3 13 15 27 26 30 19 4 20 7 7 22 -13 16 -11
17 16 10 21 -5 26 -4 15 3 -12 8 -4 15 35 32 27 12 76 48 109 81 81 80 231
153 401 193 39 10 74 21 80 26 13 13 7 12 -99 -16 -109 -29 -123 -28 -336 25
-214 54 -582 209 -717 302 -24 16 -43 27 -43 25 0 -7 108 -87 118 -87 5 0 17
-9 27 -20 10 -11 27 -20 38 -20 12 0 68 -47 141 -119 112 -111 234 -218 274
-240 43 -24 -62 -41 -111 -18 -51 24 -150 37 -293 37 -123 0 -194 11 -194 30
0 5 29 18 64 30 l65 21 10 52 c24 125 24 132 7 118 -9 -7 -14 -16 -11 -20 2
-4 -1 -25 -6 -47 -8 -31 -17 -42 -42 -51 -56 -19 -143 -58 -170 -75 -22 -15
-26 -15 -31 -3 -3 8 -10 15 -15 15 -6 0 -8 -7 -5 -15 5 -12 -16 -13 -148 -8
-96 4 -185 1 -238 -6 -47 -6 -94 -13 -105 -14 -11 -1 -24 -8 -28 -14 -4 -7
-16 -13 -25 -13 -15 -1 -75 -29 -62 -29 3 -1 41 11 85 25 67 22 105 27 240 31
138 5 324 -5 413 -23 38 -8 24 -21 -31 -28 -28 -3 -95 -18 -147 -32 -52 -14
-130 -32 -172 -40 -122 -23 -388 -115 -388 -134 0 -5 8 -7 18 -5 9 1 22 -2 29
-7 7 -6 18 -8 25 -5 8 4 7 6 -4 6 -44 2 -8 21 119 63 76 25 172 53 213 61 41
8 102 23 135 32 256 74 519 91 661 41 l39 -13 -30 -15 c-73 -37 -139 -51 -254
-53 -121 -2 -192 -11 -401 -51 -140 -27 -154 -28 -145 -14 3 5 3 10 -2 10 -14
0 -35 -17 -33 -26 0 -5 -12 -12 -28 -15 -16 -3 -64 -27 -106 -52 -42 -26 -83
-47 -91 -47 -7 0 -17 -5 -20 -10 -3 -5 -2 -10 4 -10 5 0 -2 -13 -17 -28 -15
-15 -33 -26 -41 -23 -9 3 -12 0 -7 -7 4 -6 -1 -23 -10 -37 -9 -14 -14 -28 -10
-32 3 -3 6 -1 6 5 0 7 5 12 12 12 6 0 23 13 37 28 14 15 40 36 56 46 l30 19
-24 -27 c-20 -21 -22 -26 -8 -26 9 0 17 4 17 10 0 5 18 19 39 29 21 11 47 28
57 38 17 17 17 17 12 -7 -4 -14 -2 -34 2 -45 9 -22 12 -16 14 30 1 19 6 29 15
27 22 -5 51 9 51 24 0 11 17 14 78 14 46 0 72 -4 64 -9 -8 -4 -13 -12 -12 -17
0 -5 -7 -11 -17 -12 -10 -2 -22 -8 -28 -14 -6 -6 -3 -7 10 -3 16 6 16 3 -5
-14 -14 -11 -31 -21 -38 -21 -7 0 -23 -9 -34 -20 -12 -11 -39 -28 -60 -38 -20
-9 -36 -22 -35 -29 3 -18 -82 -103 -104 -103 -10 0 -19 3 -19 8 0 4 -54 5
-120 2 -102 -4 -120 -3 -121 10 0 8 -5 4 -10 -9 -5 -13 -15 -21 -23 -18 -7 3
-18 1 -23 -4 -6 -6 -24 -4 -48 6 -31 13 -43 14 -67 4 -33 -14 -48 -38 -73
-127 -21 -70 -30 -66 -40 21 -5 36 -14 66 -25 77 -10 10 -17 20 -15 22 3 3
-28 3 -72 -1 -33 -2 -73 -46 -98 -106 l-24 -60 1 40 c1 84 -3 106 -22 125 -11
11 -20 25 -20 30 0 26 111 205 164 265 33 38 40 55 16 40 -23 -14 -126 -162
-160 -231 -19 -38 -35 -70 -35 -70 0 -1 -23 -5 -51 -9 l-52 -7 -15 44 c-46
125 -97 389 -122 628 -8 80 -13 106 -14 72 -1 -53 28 -278 55 -432 16 -92 46
-208 71 -280 l15 -46 -28 -30 c-44 -46 -142 -156 -158 -179 -13 -18 -14 -13
-13 56 1 57 -3 83 -16 102 -38 59 -120 69 -155 20 -41 -58 -62 -78 -62 -61 0
24 -45 73 -79 87 -24 10 -34 10 -59 -3 -37 -19 -71 -75 -191 -309 -96 -188
-106 -223 -72 -264 31 -37 76 -31 123 16 38 39 61 44 72 16 3 -8 24 -19 46
-25 38 -10 45 -9 82 15 21 14 41 32 44 40 4 10 16 3 42 -24 27 -28 51 -42 90
-51 72 -17 94 -8 136 50 34 48 47 57 105 75 16 5 21 4 17 -4 -12 -18 23 -70
64 -96 40 -26 77 -26 108 -2 8 6 12 6 12 -1 0 -19 65 -34 93 -21 25 11 57 71
57 104 0 32 16 12 30 -37 19 -67 57 -93 112 -77 20 5 48 23 61 39 l25 29 22
-24 c34 -36 74 -39 155 -14 85 26 110 38 202 100 l72 48 -16 -43 c-20 -52 -12
-89 27 -127 34 -34 81 -38 109 -10 11 11 28 40 39 65 16 34 29 49 57 61 21 8
38 15 39 15 0 0 1 -18 1 -39 1 -24 8 -48 19 -60 25 -27 79 -42 116 -31 21 6
43 3 78 -10 27 -10 53 -15 58 -11 5 5 25 11 44 15 l35 6 -55 -50 c-54 -51
-120 -89 -151 -90 -23 0 -73 -27 -100 -54 -13 -13 -44 -35 -67 -50 -62 -39
-46 -42 32 -7 36 17 87 36 113 42 61 15 104 37 121 60 17 25 32 24 32 -1 0
-11 5 -20 11 -20 5 0 9 8 8 18 -3 32 1 42 16 42 8 0 15 4 15 8 0 4 12 13 28
20 44 20 70 37 89 59 10 12 42 42 71 66 l53 44 32 -32 c19 -19 52 -38 76 -45
51 -14 183 -8 189 9 2 6 8 11 13 11 19 0 123 73 169 118 60 60 92 87 113 95
10 4 14 12 11 22 -5 11 -2 14 10 9 12 -5 15 -2 10 10 -4 11 -1 16 11 16 9 0
13 -4 10 -10 -3 -5 -1 -10 6 -10 6 0 9 8 6 20 -3 12 -1 17 5 14 5 -3 20 4 34
17 13 12 24 19 24 15 0 -10 22 14 36 39 6 11 22 22 35 25 15 4 20 8 12 13 -16
10 -5 37 14 37 8 0 28 14 43 30 15 17 24 30 18 30 -5 0 -7 4 -3 10 3 5 11 7
18 4 8 -3 19 10 27 31 11 27 19 35 32 32 10 -3 15 -1 12 4 -3 6 8 23 24 39 17
16 28 30 26 32 -5 5 151 109 187 124 14 7 37 22 51 35 38 37 67 59 77 59 5 0
11 3 13 8 2 4 32 28 68 54 36 26 77 60 92 75 16 15 28 22 28 15 0 -8 8 -5 22
8 12 11 25 20 30 20 4 0 17 9 29 21 11 11 27 18 35 15 16 -6 39 30 25 38 -5 4
-17 4 -28 1 -11 -4 -9 -1 5 6 12 7 22 16 22 21 0 4 6 8 14 8 7 0 29 15 48 33
53 49 251 144 388 186 80 24 280 25 280 0 0 -5 -7 -9 -15 -9 -23 0 -110 -76
-268 -236 -81 -82 -155 -157 -164 -166 -9 -10 -20 -15 -26 -11 -6 3 -7 1 -4
-5 4 -5 -42 -60 -101 -121 -60 -61 -106 -113 -104 -116 2 -2 -8 -19 -22 -38
-35 -45 -33 -57 9 -57 26 0 33 3 29 15 -4 9 0 15 10 15 9 0 16 7 16 16 0 9 25
42 55 73 30 31 66 70 81 86 65 73 134 145 139 145 3 0 0 -10 -6 -22 -20 -37
-38 -130 -37 -188 1 -55 1 -54 10 20 19 154 102 296 263 454 113 110 129 117
275 115 66 0 120 -4 120 -7 0 -4 -59 -35 -130 -70 -71 -35 -132 -68 -136 -74
-4 -6 -3 -9 2 -6 5 2 70 34 144 70 74 36 151 69 170 72 l35 6 -25 -17 c-44
-30 -121 -116 -167 -186 -70 -107 -98 -230 -97 -420 1 -123 -1 -147 -13 -147
-8 0 -30 -15 -48 -33 -27 -27 -42 -64 -90 -210 -31 -97 -61 -179 -65 -182 -13
-8 -133 156 -161 217 -10 23 -9 30 10 54 44 56 19 136 -50 159 -33 11 -34 14
-37 68 -2 32 -8 57 -14 57 -7 0 -8 -20 -4 -60 l7 -60 -48 -1 c-47 -1 -75 -4
-139 -14 -70 -12 -116 -96 -89 -161 9 -22 23 -36 40 -40 23 -6 25 -10 19 -38
-3 -17 -16 -58 -29 -91 -21 -58 -23 -60 -58 -61 l-36 -2 23 32 c37 48 51 106
36 150 -6 20 -22 44 -35 52 -22 14 -23 17 -10 48 13 30 12 37 -8 77 -28 55
-58 71 -117 63 -82 -11 -201 -79 -290 -167 l-35 -35 -1 80 c0 76 -1 82 -29
105 -25 22 -35 25 -77 20 -61 -8 -92 -29 -159 -112 -44 -55 -55 -63 -60 -48
-6 14 -8 12 -8 -9 -1 -18 -25 -60 -66 -115 -122 -166 -157 -257 -118 -313 54
-79 126 -68 168 25 16 38 32 58 50 65 39 15 45 13 45 -14 0 -64 44 -101 119
-99 26 1 43 9 63 32 24 27 28 28 33 12 3 -11 21 -26 40 -35 31 -15 40 -15 102
-1 81 19 148 49 222 99 l54 36 -6 -29 c-9 -43 10 -89 44 -106 76 -40 356 14
388 74 26 48 -1 123 -51 140 -34 12 -34 17 1 111 23 64 31 75 53 78 23 3 31
-6 71 -75 25 -43 64 -104 88 -136 30 -41 44 -69 45 -93 2 -67 69 -125 123
-106 31 11 54 -1 65 -35 6 -18 2 -22 -26 -28 -18 -4 -37 -11 -43 -15 -5 -5
-39 -13 -75 -20 -36 -7 -80 -19 -98 -27 -18 -8 -54 -18 -80 -23 -50 -9 -160
-37 -172 -45 -4 -3 -68 -7 -141 -10 -74 -3 -152 -7 -174 -10 -22 -2 -80 -7
-129 -11 -48 -3 -125 -12 -170 -19 -44 -7 -85 -11 -90 -8 -4 3 -25 1 -45 -5
-20 -6 -97 -18 -171 -27 -74 -10 -180 -26 -235 -37 -118 -23 -176 -31 -227
-31 -21 0 -38 -4 -38 -8 0 -4 -9 -5 -20 -2 -11 3 -20 12 -20 19 0 8 -8 14 -17
13 -11 0 -13 -3 -5 -6 24 -9 12 -31 -20 -36 -215 -34 -214 -34 -333 -43 -247
-18 -444 -6 -516 32 -16 8 -30 10 -33 6 -5 -8 -122 -7 -186 3 -251 36 -496 51
-604 35 -81 -11 -90 -15 -131 -54 -29 -29 -48 -40 -57 -35 -21 14 -28 10 -28
-11 0 -11 -4 -20 -10 -20 -5 0 -10 7 -10 16 0 8 -5 12 -10 9 -6 -4 -7 -11 -4
-17 4 -6 2 -8 -4 -5 -10 7 -5 47 7 45 19 -2 19 4 1 22 -17 17 -18 24 -9 41 9
19 9 19 -10 10 -26 -15 -31 -14 -25 3 3 9 -4 19 -17 26 -15 9 -18 14 -10 20 9
5 9 9 -3 13 -11 4 -16 1 -16 -10 0 -27 -13 -6 -15 24 -4 60 -6 69 -15 83 -9
13 -11 13 -20 0 -7 -11 -10 -6 -10 21 0 21 -11 56 -25 80 l-26 44 4 -300 c3
-165 8 -312 12 -328 6 -23 12 -27 44 -27 l37 0 -7 88 c-5 53 -3 92 3 99 5 7 7
17 3 23 -3 5 -2 10 4 10 17 0 51 -51 51 -77 0 -20 3 -23 27 -17 21 6 25 4 20
-9 -4 -11 -2 -14 9 -10 7 3 14 10 14 15 0 6 11 3 25 -6 30 -19 66 -23 47 -4
-7 7 -12 19 -12 28 0 11 6 8 19 -9 10 -13 24 -22 32 -19 8 3 18 -5 24 -16 6
-12 22 -22 39 -24 16 -2 44 -15 61 -28 18 -13 37 -24 44 -24 7 0 9 -5 6 -10
-4 -7 195 -10 622 -10 621 1 629 1 642 21 7 12 18 18 26 16 7 -3 21 3 30 13
10 11 22 17 26 14 5 -3 9 -2 9 3 0 4 10 9 23 9 13 1 44 11 69 23 58 26 153 53
196 54 17 1 32 4 32 8 0 3 6 6 13 7 6 1 46 8 87 15 68 13 105 22 195 47 17 4
48 11 70 15 21 4 51 13 66 21 15 7 41 16 59 19 19 3 36 8 40 10 3 2 33 5 66 6
32 1 66 6 75 10 9 5 50 13 90 19 41 6 108 18 149 25 41 8 110 17 154 20 43 3
81 7 85 9 3 2 119 11 256 20 238 15 409 39 421 57 3 5 16 9 29 9 13 0 27 5 30
10 11 18 25 10 25 -14 0 -16 -7 -27 -20 -31 -25 -8 -26 -25 -2 -25 16 -1 16
-1 0 -11 -10 -5 -18 -17 -18 -24 0 -8 -4 -15 -10 -15 -5 0 -10 -7 -10 -15 0
-8 5 -15 10 -15 7 0 7 -6 1 -19 -12 -21 -10 -82 2 -74 4 2 7 -7 7 -21 0 -14 4
-26 9 -26 14 0 16 -85 2 -115 -5 -11 -13 -29 -17 -40 -6 -15 -10 -6 -14 35 -5
55 -5 55 -11 15 -3 -21 -3 -49 -1 -62 4 -23 6 -23 143 -23 112 0 139 3 139 14
0 8 -7 16 -15 20 -20 7 -19 24 3 29 11 3 7 5 -10 6 -21 1 -25 5 -21 22 4 13 8
17 13 9 5 -7 9 -3 13 12 10 35 8 41 -8 34 -23 -8 -18 4 11 29 16 13 22 25 16
29 -6 3 -18 -4 -26 -16 -20 -28 -20 -18 -1 29 8 19 15 46 15 59 0 13 6 29 13
36 19 17 10 48 -11 40 -16 -6 -16 -4 0 20 9 14 16 39 16 55 -1 44 24 123 39
123 8 0 13 12 13 29 0 17 5 33 11 36 6 4 8 13 5 21 -3 9 2 14 14 14 11 0 20 5
20 10 0 6 -12 10 -27 10 -16 0 -45 3 -66 7 l-38 6 25 26 c14 14 32 44 41 65
l16 39 23 -38 c28 -46 77 -74 130 -75 91 -1 238 60 324 133 20 18 32 25 25 16
-21 -26 -19 -126 2 -149 32 -35 83 -24 120 27 16 23 33 42 36 42 4 1 21 -12
39 -29 48 -45 88 -41 141 12 39 39 43 41 53 24 34 -57 86 -86 156 -86 41 0 66
19 95 73 13 24 31 41 52 48 17 5 33 15 35 21 7 20 37 0 43 -29 9 -41 20 -58
41 -61 14 -2 15 -1 6 6 -16 11 -17 32 -7 91 l8 44 -39 -7 c-21 -4 -63 -18 -91
-31 -47 -21 -56 -30 -77 -79 -26 -59 -55 -74 -74 -40 -6 11 -11 13 -16 5 -12
-20 -41 -12 -71 19 l-29 30 23 116 c12 64 20 118 18 120 -4 4 -72 -110 -131
-218 -40 -74 -66 -86 -100 -49 -16 17 -17 33 -12 128 l7 108 -26 -40 c-14 -22
-48 -86 -76 -143 -43 -88 -53 -103 -72 -100 -12 2 -28 15 -35 30 -12 25 -5 40
109 255 67 125 129 236 137 246 19 21 41 22 70 1 19 -13 22 -24 21 -72 0 -31
-4 -83 -8 -114 -4 -32 -5 -55 -2 -52 3 3 42 60 86 127 85 129 107 146 146 111
25 -22 24 -55 -5 -234 -13 -80 -22 -147 -21 -148 2 -2 10 10 19 26 21 41 150
213 224 299 49 56 70 74 97 79 64 12 69 0 61 -166 -3 -80 -12 -176 -20 -215
-15 -76 -13 -94 5 -49 19 47 40 182 46 291 5 96 3 104 -19 132 -16 21 -32 30
-54 30 -56 1 -97 -25 -164 -104 -36 -43 -71 -84 -79 -92 -23 -24 -36 -9 -32
38 1 24 3 46 3 49 2 41 -6 72 -26 93 -53 57 -118 43 -172 -37 -27 -41 -34 -46
-34 -28 0 34 -17 60 -52 81 l-30 19 83 32 c46 18 111 38 144 45 132 29 165 39
165 50 0 7 7 18 15 25 8 7 15 16 15 20 0 5 -13 -4 -30 -20 -16 -15 -40 -30
-52 -33 -13 -3 -50 -12 -83 -20 -33 -8 -91 -25 -129 -37 -38 -12 -78 -23 -89
-26 -11 -2 -30 -10 -43 -19 -13 -8 -30 -15 -37 -15 -30 0 -65 -42 -118 -140
l-54 -102 -6 48 c-10 70 -22 95 -66 136 -52 46 -122 64 -184 48 -59 -16 -135
-55 -184 -95 l-40 -32 -1 35 c-1 70 -104 122 -146 75 -9 -10 -29 -56 -46 -103
l-29 -84 -12 52 c-6 29 -11 63 -11 76 0 23 -37 66 -58 66 -31 0 -36 241 -8
360 25 105 34 128 74 185 37 52 62 75 121 112 48 30 63 29 55 -2 -13 -53 13
-21 50 63 22 48 55 110 73 139 33 50 34 53 19 80 l-16 28 6 -35 c4 -27 0 -40
-16 -58 -12 -12 -27 -37 -35 -55 -15 -36 -19 -30 -33 51 -10 58 -1 68 19 20 7
-17 14 -27 16 -22 2 6 -19 65 -46 131 -28 67 -61 161 -75 209 -14 48 -28 89
-31 92 -22 22 21 -136 65 -238 20 -48 29 -89 34 -158 4 -51 9 -99 12 -106 5
-12 -18 -14 -148 -9 -134 5 -159 8 -200 29 -68 34 -214 43 -306 19 -37 -10
-77 -25 -89 -33 -23 -14 -32 -5 -13 14 17 17 48 222 54 359 6 143 -4 115 106
280 22 34 56 109 73 165 3 8 4 -11 4 -42 -1 -33 -6 -58 -12 -58 -5 0 -4 -4 3
-9 17 -10 10 -276 -12 -411 -14 -89 -14 -111 0 -97 18 17 46 269 50 439 2 103
8 198 13 211 6 14 6 29 0 38 -6 10 -9 8 -9 -11 0 -17 -3 -21 -11 -13 -8 8 -4
42 14 124 14 63 31 159 38 214 8 68 18 109 31 128 11 16 22 26 24 24 6 -6 19
-175 19 -247 0 -78 -13 -351 -21 -435 -6 -70 -40 -283 -54 -340 -18 -74 -8
-91 11 -20 49 174 82 544 76 835 -3 113 -8 214 -11 225 -5 13 0 27 12 41 27
29 158 258 215 377 45 91 68 125 52 75 -11 -35 -24 -717 -15 -779 5 -37 8 19
11 186 1 132 2 249 1 260 -4 57 22 394 34 434 7 25 12 46 11 48 -2 1 -22 -39
-46 -90z m-630 -1588 c-6 -68 -18 -160 -27 -204 -9 -44 -19 -95 -21 -114 -5
-28 -12 -36 -50 -53 -25 -11 -54 -18 -64 -15 -10 3 -17 1 -14 -3 11 -19 -30
-28 -68 -17 l-37 12 1 130 0 130 75 60 c41 33 104 93 141 132 36 40 68 71 70
69 2 -2 -1 -59 -6 -127z m-304 -386 c-3 -2 -60 -1 -128 3 l-124 7 49 41 c27
23 83 71 125 107 l76 66 3 -110 c1 -60 1 -111 -1 -114z m-1319 -257 c-6 -15
-24 -34 -39 -42 -32 -16 -53 -18 -45 -5 4 5 1 11 -6 13 -7 3 -5 7 6 11 11 4
15 3 10 -4 -4 -7 1 -10 11 -7 19 3 32 48 15 48 -6 0 -10 -4 -10 -8 0 -11 -46
-32 -69 -32 -11 0 -22 -7 -25 -16 -4 -9 -13 -14 -21 -10 -8 3 -14 0 -12 -6 2
-10 -100 -97 -116 -98 -10 0 -62 -38 -129 -93 -28 -24 -51 -36 -59 -31 -8 4
-10 3 -5 -5 4 -6 -4 -25 -18 -42 -14 -17 -26 -36 -26 -42 0 -15 -69 -97 -81
-97 -18 0 -46 -38 -52 -69 -4 -18 -14 -39 -22 -47 -8 -9 -13 -20 -9 -25 6 -10
-17 -79 -27 -79 -3 0 -7 30 -8 68 -2 86 -15 126 -47 141 -68 31 -132 2 -214
-96 l-64 -76 -9 29 c-14 44 -55 93 -92 111 l-32 15 28 29 c16 16 31 29 35 29
4 0 28 15 54 34 48 34 87 52 105 47 5 -1 7 1 3 5 -9 8 43 43 70 47 9 1 24 7
32 12 8 6 53 26 98 46 46 20 91 42 100 50 24 20 70 49 78 49 4 0 -1 -9 -11
-20 -10 -11 -15 -23 -11 -27 4 -5 12 1 18 11 8 15 12 16 20 5 7 -10 8 -6 5 14
-5 31 9 36 29 10 13 -17 13 -17 14 0 0 10 6 17 13 16 6 0 22 2 35 6 19 6 20
10 10 22 -11 14 -7 15 30 8 31 -5 42 -4 40 5 -2 6 22 20 52 29 30 10 84 32
120 48 72 34 168 50 198 34 16 -8 21 -7 26 6 4 9 9 14 12 11 2 -3 -1 -18 -8
-32z m-878 -206 c0 -10 -4 -21 -8 -24 -5 -3 -9 8 -9 24 0 16 4 27 9 24 4 -3 8
-14 8 -24z m35 10 c3 -5 1 -10 -4 -10 -6 0 -11 5 -11 10 0 6 2 10 4 10 3 0 8
-4 11 -10z m396 -173 c-8 -8 -11 -7 -11 4 0 20 13 34 18 19 3 -7 -1 -17 -7
-23z m-61 -47 c0 -5 -5 -10 -11 -10 -5 0 -7 5 -4 10 3 6 8 10 11 10 2 0 4 -4
4 -10z m-20 -30 c0 -5 -5 -10 -11 -10 -5 0 -7 5 -4 10 3 6 8 10 11 10 2 0 4
-4 4 -10z m2 -85 c10 -22 3 -42 -50 -162 -78 -176 -96 -223 -89 -229 3 -3 40
9 83 25 93 36 96 37 119 11 43 -48 -5 -85 -189 -144 -93 -31 -104 -31 -128 -9
-28 25 -22 54 33 176 29 61 72 163 96 226 24 63 46 118 49 123 3 4 19 8 35 8
22 0 32 -7 41 -25z m-1544 -107 c3 -118 -15 -278 -40 -353 -12 -36 -17 -40
-49 -43 -53 -4 -65 16 -52 81 6 29 9 54 7 56 -6 6 -109 -22 -145 -40 -27 -13
-42 -31 -58 -69 -25 -57 -43 -70 -70 -46 -13 12 -20 13 -29 4 -15 -15 -56 3
-77 35 -15 23 -14 33 5 127 11 56 19 107 17 113 -4 12 -38 -42 -110 -173 -55
-101 -71 -113 -113 -85 -25 16 -25 19 -19 93 3 42 8 93 11 112 5 32 4 34 -11
19 -9 -9 -44 -72 -79 -140 -35 -68 -70 -125 -78 -127 -21 -4 -48 25 -48 51 1
28 242 478 263 491 11 7 25 7 44 0 l28 -10 -1 -117 c-1 -64 0 -117 1 -117 2 0
38 54 81 120 77 120 96 137 135 125 38 -12 40 -45 14 -211 -14 -87 -25 -162
-25 -168 0 -5 22 23 50 63 97 141 226 298 263 318 12 7 36 12 52 10 l30 -2 3
-117z m1272 107 c26 -32 -17 -451 -52 -492 -14 -18 -73 -16 -88 2 -9 11 -9 26
-1 66 6 29 9 54 6 57 -8 9 -134 -29 -158 -48 -12 -10 -33 -41 -47 -69 -26 -57
-50 -66 -76 -26 -11 16 -14 34 -9 54 17 76 291 438 350 462 31 12 61 10 75 -6z
m1528 -115 c3 -132 -16 -292 -42 -355 -13 -30 -20 -35 -49 -35 -57 0 -65 21
-41 115 7 27 6 28 -31 21 -21 -4 -62 -16 -92 -27 -49 -19 -55 -25 -80 -80 -15
-33 -34 -59 -42 -59 -24 0 -51 31 -51 60 0 45 115 219 253 383 71 85 104 108
147 104 l25 -2 3 -125z m446 108 c23 -33 20 -67 -6 -78 -13 -5 -54 -18 -93
-29 -71 -21 -142 -57 -131 -68 3 -3 56 0 118 8 130 16 146 15 164 -9 21 -27
17 -54 -15 -104 -55 -86 -221 -192 -340 -217 -49 -10 -57 -10 -72 6 -22 23
-31 54 -21 71 5 7 54 24 110 37 110 27 166 51 196 84 19 21 19 21 -16 21 -19
0 -83 -5 -142 -11 -118 -12 -136 -7 -136 38 0 36 23 74 77 124 68 63 140 111
198 131 67 23 91 22 109 -4z m-2370 -13 c40 -19 76 -66 76 -99 0 -100 -237
-311 -412 -366 -64 -20 -75 -21 -98 -9 -14 8 -26 24 -28 36 -2 11 24 92 56
179 47 125 58 168 55 199 -4 31 0 44 14 57 26 23 54 27 183 24 87 -2 125 -8
154 -21z m1245 -2 c43 -33 71 -82 71 -127 0 -98 -116 -254 -240 -321 -46 -25
-66 -30 -125 -30 -81 0 -120 20 -141 72 -31 72 -9 154 65 253 109 145 283 217
370 153z m2657 6 c126 -61 109 -224 -39 -366 -109 -105 -220 -144 -312 -108
-57 21 -79 59 -79 135 0 42 6 67 29 109 59 107 170 206 268 236 59 19 85 18
133 -6z m-4308 -19 c13 -23 8 -40 -68 -235 -84 -215 -97 -239 -131 -248 -31
-8 -45 16 -74 132 -15 61 -31 111 -35 111 -8 0 -62 -141 -76 -195 -3 -13 -13
-30 -21 -36 -11 -10 -19 -7 -40 13 l-26 26 68 205 c70 215 91 252 136 245 19
-2 25 -11 32 -48 38 -214 52 -264 67 -240 6 8 28 71 51 140 23 69 46 133 51
143 13 25 49 18 66 -13z m3221 16 c7 -8 11 -27 9 -43 -3 -26 -7 -28 -48 -31
-52 -3 -44 11 -111 -181 -21 -63 -38 -116 -36 -117 2 -2 19 1 38 6 18 6 37 10
41 10 15 0 38 -33 38 -55 0 -19 -10 -27 -56 -44 -57 -22 -161 -40 -226 -41
-29 0 -41 6 -54 25 -15 23 -15 27 0 50 14 21 24 25 62 25 44 0 46 1 65 45 11
25 35 92 53 149 l33 104 -46 -2 c-49 -1 -59 11 -47 59 7 28 25 36 96 45 102
13 177 11 189 -4z m686 -6 c23 -25 19 -38 -76 -279 -71 -178 -86 -205 -119
-214 -32 -8 -42 9 -70 123 -16 61 -31 114 -33 117 -9 8 -36 -52 -66 -145 -32
-96 -48 -108 -84 -60 l-20 26 25 64 c14 35 44 124 67 198 45 143 68 180 111
180 26 0 27 -3 43 -97 20 -121 46 -208 57 -197 5 5 29 71 54 148 26 76 49 142
52 147 9 16 40 10 59 -11z m-2087 -29 c-7 -2 -16 -9 -20 -15 -11 -16 -18 -3
-12 21 5 19 9 20 25 10 13 -8 15 -13 7 -16z m572 -302 c0 -5 -7 -9 -15 -9 -9
0 -12 6 -9 15 6 15 24 11 24 -6z m1219 -121 c10 -39 2 -48 -28 -29 -11 7 -11
15 -1 47 8 22 15 35 16 29 2 -5 7 -27 13 -47z m171 -178 c0 -5 -5 -10 -11 -10
-5 0 -7 5 -4 10 3 6 8 10 11 10 2 0 4 -4 4 -10z m-30 -42 c0 -9 4 -8 11 2 7
11 8 6 3 -20 -12 -63 -23 -85 -37 -71 -9 10 -8 15 6 25 21 16 22 26 2 26 -9 0
-18 -7 -22 -16 -4 -12 -8 -13 -13 -3 -11 16 -1 39 16 39 8 0 14 7 14 15 0 8 5
15 10 15 6 0 10 -6 10 -12z m-73 -38 c1 -16 -2 -32 -7 -35 -6 -4 -10 9 -10 29
0 43 14 48 17 6z m-4039 -222 c14 -14 16 -28 2 -28 -5 0 -14 9 -20 20 -12 22
-1 27 18 8z m102 -53 c0 -5 -49 -55 -54 -55 -2 0 -9 6 -15 14 -10 12 -9 13 8
9 13 -3 23 2 30 16 10 18 31 29 31 16z m40 -45 c0 -5 -2 -10 -4 -10 -3 0 -8 5
-11 10 -3 6 -1 10 4 10 6 0 11 -4 11 -10z m-60 -20 c0 -5 -5 -10 -11 -10 -5 0
-7 5 -4 10 3 6 8 10 11 10 2 0 4 -4 4 -10z m85 -30 c3 -5 1 -10 -4 -10 -6 0
-11 5 -11 10 0 6 2 10 4 10 3 0 8 -4 11 -10z m3915 -41 c0 -6 -4 -7 -10 -4 -5
3 -10 11 -10 16 0 6 5 7 10 4 6 -3 10 -11 10 -16z"/>
<path d="M4560 2140 c0 -5 5 -10 11 -10 5 0 7 5 4 10 -3 6 -8 10 -11 10 -2 0
-4 -4 -4 -10z"/>
<path d="M4546 2095 c4 -8 8 -15 10 -15 2 0 4 7 4 15 0 8 -4 15 -10 15 -5 0
-7 -7 -4 -15z"/>
<path d="M4487 2085 c-8 -20 -4 -29 11 -24 5 2 6 13 2 23 -6 19 -7 19 -13 1z"/>
<path d="M2807 1719 c7 -7 15 -10 18 -7 3 3 -2 9 -12 12 -14 6 -15 5 -6 -5z"/>
<path d="M2615 1630 c3 -5 8 -10 11 -10 2 0 4 5 4 10 0 6 -5 10 -11 10 -5 0
-7 -4 -4 -10z"/>
<path d="M2590 1565 c0 -8 5 -15 10 -15 6 0 10 7 10 15 0 8 -4 15 -10 15 -5 0
-10 -7 -10 -15z"/>
<path d="M2055 1370 c3 -5 8 -10 11 -10 2 0 4 5 4 10 0 6 -5 10 -11 10 -5 0
-7 -4 -4 -10z"/>
<path d="M2020 1355 c0 -8 2 -15 4 -15 2 0 6 7 10 15 3 8 1 15 -4 15 -6 0 -10
-7 -10 -15z"/>
<path d="M2020 1300 c0 -5 5 -10 11 -10 5 0 7 5 4 10 -3 6 -8 10 -11 10 -2 0
-4 -4 -4 -10z"/>
<path d="M803 1041 c-29 -36 -51 -66 -50 -67 1 -1 23 3 49 8 43 10 48 15 54
43 3 18 4 43 2 56 -3 21 -9 17 -55 -40z"/>
<path d="M2078 1044 c-27 -33 -48 -62 -48 -65 0 -8 81 11 93 21 5 4 7 29 5 55
l-3 47 -47 -58z"/>
<path d="M3608 1045 c-27 -33 -48 -63 -48 -66 0 -3 20 -2 45 4 50 11 59 27 53
88 l-3 34 -47 -60z"/>
<path d="M1571 1054 c-37 -88 -72 -186 -68 -190 1 -1 26 5 54 15 64 22 190
117 228 171 26 38 27 42 12 57 -12 12 -40 18 -105 21 l-88 4 -33 -78z m159 18
c0 -16 -136 -130 -144 -121 -2 2 9 32 24 67 l29 62 45 0 c25 0 46 -4 46 -8z"/>
<path d="M2890 1114 c-65 -37 -99 -72 -126 -129 -31 -64 -30 -89 2 -114 32
-25 83 -27 125 -5 80 41 159 148 159 216 0 59 -83 76 -160 32z m100 -28 c0 -7
-62 -36 -76 -36 -7 0 -17 -7 -22 -16 -5 -9 -15 -15 -23 -12 -20 7 68 68 98 68
12 0 23 -2 23 -4z m-10 -63 c0 -3 -11 -20 -24 -37 -34 -45 -100 -88 -127 -84
-23 3 -23 3 7 34 16 16 37 33 47 37 9 3 17 11 17 17 0 6 5 8 10 5 6 -3 10 -2
10 3 0 5 10 14 23 20 26 13 37 14 37 5z"/>
<path d="M5573 1121 c-93 -43 -182 -178 -153 -232 13 -24 44 -40 78 -41 68 -2
180 93 213 181 20 54 20 55 1 80 -25 34 -81 38 -139 12z m101 -40 c7 -10 -40
-105 -59 -121 -12 -10 -26 -8 -65 6 -56 20 -61 31 -27 61 55 51 135 80 151 54z"/>
<path d="M525 4000 c-4 -39 -5 -73 -2 -76 2 -3 8 27 11 67 4 39 5 73 3 76 -3
2 -8 -28 -12 -67z"/>
<path d="M5422 4020 c0 -14 2 -19 5 -12 2 6 2 18 0 25 -3 6 -5 1 -5 -13z"/>
<path d="M5556 4017 c3 -10 9 -15 12 -12 3 3 0 11 -7 18 -10 9 -11 8 -5 -6z"/>
<path d="M513 3825 c0 -38 2 -53 4 -32 2 20 2 52 0 70 -2 17 -4 1 -4 -38z"/>
<path d="M1025 3707 c2 -37 9 -75 15 -85 8 -13 9 -9 4 18 -4 19 -10 58 -15 85
-7 46 -8 44 -4 -18z"/>
<path d="M841 3725 c-2 -22 -4 -60 -6 -85 -2 -25 -1 -34 2 -20 3 14 10 28 16
32 7 4 7 22 0 60 l-10 53 -2 -40z"/>
<path d="M495 3635 c-4 -59 -5 -109 -2 -111 3 -3 8 42 12 101 4 58 5 108 2
111 -2 3 -8 -43 -12 -101z"/>
<path d="M5346 3723 c-6 -14 -5 -15 5 -6 7 7 10 15 7 18 -3 3 -9 -2 -12 -12z"/>
<path d="M5190 3719 c0 -5 5 -7 10 -4 6 3 10 8 10 11 0 2 -4 4 -10 4 -5 0 -10
-5 -10 -11z"/>
<path d="M861 3620 c0 -14 11 -65 23 -115 16 -59 21 -96 15 -107 -5 -9 -9 -29
-8 -45 1 -27 1 -27 11 7 9 31 11 33 19 15 29 -70 63 -158 81 -205 11 -30 33
-83 49 -118 16 -35 29 -65 29 -67 0 -2 23 -51 50 -110 l51 -107 10 -206 c6
-114 9 -300 7 -414 -2 -118 1 -197 5 -185 5 12 7 188 5 390 l-4 368 48 -93
c26 -51 47 -103 47 -115 1 -13 7 -23 15 -23 8 0 17 -7 20 -16 4 -9 9 -15 11
-12 3 2 -9 31 -26 64 -17 32 -37 70 -44 84 -38 72 -225 474 -248 530 -83 210
-102 267 -132 380 -19 69 -34 114 -34 100z"/>
<path d="M821 3504 c0 -11 3 -14 6 -6 3 7 2 16 -1 19 -3 4 -6 -2 -5 -13z"/>
<path d="M5065 3510 c-3 -6 1 -7 9 -4 18 7 21 14 7 14 -6 0 -13 -4 -16 -10z"/>
<path d="M476 3398 c-4 -55 -9 -115 -12 -132 l-4 -31 10 30 c11 32 26 235 18
235 -3 0 -8 -46 -12 -102z"/>
<path d="M1071 3460 c0 -8 4 -22 9 -30 12 -18 12 -2 0 25 -6 13 -9 15 -9 5z"/>
<path d="M5646 3391 c-4 -46 -5 -86 -2 -88 6 -6 19 143 14 159 -3 7 -8 -25
-12 -71z"/>
<path d="M5711 3385 c-6 -30 -16 -81 -22 -112 -6 -32 -29 -116 -51 -188 -32
-102 -43 -126 -50 -110 -6 15 -7 13 -3 -8 3 -16 2 -26 -3 -23 -10 6 -56 -187
-49 -206 2 -7 8 5 11 27 8 45 28 107 80 245 54 143 123 430 103 430 -3 0 -10
-25 -16 -55z"/>
<path d="M1704 3413 c2 -10 10 -44 16 -76 7 -32 14 -57 16 -54 8 8 -19 147
-28 147 -5 0 -7 -8 -4 -17z"/>
<path d="M1091 3400 c0 -8 4 -24 9 -35 5 -13 9 -14 9 -5 0 8 -4 24 -9 35 -5
13 -9 14 -9 5z"/>
<path d="M5850 3393 c-37 -25 -40 -32 -40 -114 0 -182 -24 -319 -65 -369 -26
-33 -56 -90 -47 -90 6 0 20 20 32 45 28 57 42 59 23 3 -8 -24 -16 -65 -19 -93
l-4 -50 15 55 c8 30 25 96 39 145 13 50 27 135 30 190 17 267 14 255 52 271
44 19 108 18 124 -1 15 -19 23 -14 14 9 -9 23 -120 23 -154 -1z"/>
<path d="M815 3356 c-17 -109 15 -964 40 -1077 18 -85 18 -69 -1 107 -21 191
-13 549 15 773 11 85 19 157 16 159 -2 2 -6 -18 -10 -45 -3 -26 -10 -68 -15
-93 -5 -25 -12 -97 -16 -160 -13 -216 -24 -159 -21 113 1 147 1 267 0 267 -1
0 -5 -20 -8 -44z"/>
<path d="M4395 3384 c-15 -12 -38 -15 -98 -11 -59 3 -74 1 -60 -7 41 -23 193
-4 193 25 0 13 -12 10 -35 -7z"/>
<path d="M2486 3329 c32 -36 77 -49 171 -48 48 0 97 4 108 9 12 5 -28 8 -102
7 -120 -2 -122 -2 -150 26 -34 32 -55 37 -27 6z"/>
<path d="M1121 3295 c1 -19 18 -51 18 -35 0 8 -4 22 -9 30 -5 8 -9 11 -9 5z"/>
<path d="M4615 3215 c4 -22 11 -47 16 -55 7 -10 8 -2 4 25 -4 22 -11 47 -16
55 -7 10 -8 2 -4 -25z"/>
<path d="M1141 3225 c0 -11 4 -27 9 -35 9 -13 10 -13 9 0 0 8 -4 24 -9 35 l-9
20 0 -20z"/>
<path d="M4480 3225 c0 -19 34 -105 41 -105 10 0 -17 90 -30 103 -6 6 -11 7
-11 2z"/>
<path d="M452 3204 c-1 -12 -4 -37 -7 -55 -5 -31 -5 -32 5 -9 6 13 9 38 7 55
-2 18 -4 21 -5 9z"/>
<path d="M4330 3193 c0 -15 5 -35 10 -43 7 -11 10 -6 10 22 0 20 -4 40 -10 43
-6 4 -10 -6 -10 -22z"/>
<path d="M2656 3093 c27 -63 52 -96 39 -53 -16 52 -45 110 -55 110 -5 0 2 -26
16 -57z"/>
<path d="M2841 3140 c0 -8 8 -31 19 -50 11 -19 19 -28 19 -20 0 8 -8 31 -19
50 -11 19 -19 28 -19 20z"/>
<path d="M2470 3133 c1 -4 12 -28 25 -53 27 -50 34 -37 9 16 -16 33 -34 54
-34 37z"/>
<path d="M5611 3114 c0 -11 3 -14 6 -6 3 7 2 16 -1 19 -3 4 -6 -2 -5 -13z"/>
<path d="M2270 3098 c0 -7 9 -24 20 -38 l20 -25 -11 33 c-12 34 -29 52 -29 30z"/>
<path d="M5292 3070 c0 -19 2 -27 5 -17 2 9 2 25 0 35 -3 9 -5 1 -5 -18z"/>
<path d="M5601 3075 c-1 -11 -4 -31 -6 -45 l-6 -25 11 25 c6 13 9 33 7 45 -4
19 -4 19 -6 0z"/>
<path d="M432 3055 c0 -16 2 -22 5 -12 2 9 2 23 0 30 -3 6 -5 -1 -5 -18z"/>
<path d="M1195 3045 c9 -48 39 -139 42 -128 2 5 -8 43 -22 84 -13 41 -22 61
-20 44z"/>
<path d="M3710 3004 c0 -27 -8 -51 -22 -70 -19 -23 -23 -43 -26 -126 l-4 -99
-28 6 c-62 14 -276 -88 -344 -164 -32 -35 -9 -24 62 31 89 68 177 109 253 115
l60 6 -3 -97 c-3 -99 5 -122 38 -109 17 6 34 66 34 121 0 39 2 42 28 42 l27 1
-27 15 -28 15 0 162 c0 89 -5 169 -10 177 -7 11 -10 4 -10 -26z"/>
<path d="M415 2960 c-4 -23 -5 -43 -2 -46 2 -3 7 14 11 37 4 23 5 44 2 46 -2
2 -7 -14 -11 -37z"/>
<path d="M5172 2908 c9 -67 89 -330 95 -312 4 11 -50 191 -65 221 -5 10 -13
48 -17 86 -3 37 -10 67 -14 67 -4 0 -4 -28 1 -62z"/>
<path d="M402 2880 c0 -14 2 -19 5 -12 2 6 2 18 0 25 -3 6 -5 1 -5 -13z"/>
<path d="M1245 2875 c4 -16 13 -43 20 -60 21 -47 73 -169 121 -288 41 -101 87
-193 172 -347 45 -83 140 -227 153 -236 14 -8 -5 29 -25 48 -44 45 -245 424
-300 568 -16 41 -40 100 -54 130 -14 30 -40 91 -59 135 -19 44 -31 67 -28 50z"/>
<path d="M1931 2864 c0 -11 3 -14 6 -6 3 7 2 16 -1 19 -3 4 -6 -2 -5 -13z"/>
<path d="M6063 2830 c0 -30 2 -43 4 -27 2 15 2 39 0 55 -2 15 -4 2 -4 -28z"/>
<path d="M4911 2854 c0 -11 3 -14 6 -6 3 7 2 16 -1 19 -3 4 -6 -2 -5 -13z"/>
<path d="M1851 2844 c0 -11 3 -14 6 -6 3 7 2 16 -1 19 -3 4 -6 -2 -5 -13z"/>
<path d="M536 2828 c-4 -13 -11 -39 -16 -58 -20 -74 -40 -139 -73 -230 -19
-52 -37 -106 -41 -120 -15 -51 13 4 35 70 12 36 32 90 45 121 26 62 69 228 61
235 -3 3 -8 -5 -11 -18z"/>
<path d="M1941 2827 c-1 -10 3 -27 9 -37 5 -10 17 -52 26 -92 9 -40 23 -100
31 -133 7 -33 15 -65 16 -72 2 -7 7 -16 11 -20 8 -7 3 25 -10 70 -7 21 9 22
26 2 11 -13 63 -51 109 -79 8 -5 -15 20 -51 55 -66 65 -127 166 -129 211 0 29
-38 120 -38 95z"/>
<path d="M392 2800 c0 -14 2 -19 5 -12 2 6 2 18 0 25 -3 6 -5 1 -5 -13z"/>
<path d="M4835 2770 c-3 -5 -1 -10 4 -10 6 0 11 5 11 10 0 6 -2 10 -4 10 -3 0
-8 -4 -11 -10z"/>
<path d="M381 2744 c0 -11 3 -14 6 -6 3 7 2 16 -1 19 -3 4 -6 -2 -5 -13z"/>
<path d="M5342 2740 c0 -14 2 -19 5 -12 2 6 2 18 0 25 -3 6 -5 1 -5 -13z"/>
<path d="M1891 2720 c0 -8 4 -24 9 -35 5 -13 9 -14 9 -5 0 8 -4 24 -9 35 -5
13 -9 14 -9 5z"/>
<path d="M4840 2721 c0 -5 5 -13 10 -16 6 -3 10 -2 10 4 0 5 -4 13 -10 16 -5
3 -10 2 -10 -4z"/>
<path d="M5723 2685 c0 -22 2 -30 4 -17 2 12 2 30 0 40 -3 9 -5 -1 -4 -23z"/>
<path d="M356 2629 c-10 -45 -16 -83 -13 -85 2 -2 12 32 22 76 10 44 16 82 13
85 -2 3 -12 -31 -22 -76z"/>
<path d="M4810 2684 c0 -8 5 -12 10 -9 6 4 8 11 5 16 -9 14 -15 11 -15 -7z"/>
<path d="M1915 2640 c4 -14 23 -64 41 -112 19 -48 34 -90 34 -93 0 -12 43
-105 47 -102 4 5 -115 318 -124 327 -3 3 -2 -6 2 -20z"/>
<path d="M4824 2642 c4 -7 3 -19 -4 -27 -6 -8 -7 -16 -2 -19 14 -8 23 37 10
49 -8 7 -9 6 -4 -3z"/>
<path d="M5710 2603 c0 -41 -13 -83 -48 -153 -12 -25 -17 -37 -10 -26 56 83
61 94 66 153 2 35 2 63 -2 63 -3 0 -6 -17 -6 -37z"/>
<path d="M5402 2480 c0 -14 2 -19 5 -12 2 6 2 18 0 25 -3 6 -5 1 -5 -13z"/>
<path d="M1290 2465 c0 -8 2 -15 4 -15 2 0 6 7 10 15 3 8 1 15 -4 15 -6 0 -10
-7 -10 -15z"/>
<path d="M2192 2434 c10 -10 20 -15 24 -12 3 4 -5 12 -18 18 -22 12 -22 12 -6
-6z"/>
<path d="M5412 2425 c0 -16 2 -22 5 -12 2 9 2 23 0 30 -3 6 -5 -1 -5 -18z"/>
<path d="M301 2423 c-1 -6 -4 -20 -7 -30 -5 -17 -5 -17 6 0 6 10 9 23 6 30 -3
9 -5 9 -5 0z"/>
<path d="M703 2390 c0 -25 2 -35 4 -22 2 12 2 32 0 45 -2 12 -4 2 -4 -23z"/>
<path d="M5875 2422 c12 -13 237 -36 266 -27 11 4 19 9 17 11 -3 2 -58 6 -124
8 -65 3 -130 8 -144 12 -17 5 -22 4 -15 -4z"/>
<path d="M2270 2380 c8 -6 24 -15 35 -21 16 -8 15 -6 -4 10 -13 12 -28 21 -35
21 -6 0 -4 -5 4 -10z"/>
<path d="M381 2357 c-5 -13 -23 -54 -40 -92 -42 -93 -30 -97 14 -4 l36 74 -4
-66 c-3 -37 -1 -73 4 -80 5 -9 9 27 9 89 0 56 -2 102 -5 102 -3 0 -9 -10 -14
-23z"/>
<path d="M282 2350 c0 -14 2 -19 5 -12 2 6 2 18 0 25 -3 6 -5 1 -5 -13z"/>
<path d="M5593 2344 c-10 -14 -33 -46 -51 -70 -18 -25 -32 -50 -30 -56 3 -9
23 18 92 125 23 34 13 36 -11 1z"/>
<path d="M271 2313 c-1 -6 -4 -20 -7 -30 -5 -17 -5 -17 6 0 6 10 9 23 6 30 -3
9 -5 9 -5 0z"/>
<path d="M4910 2285 c-7 -20 -10 -39 -7 -41 3 -3 10 11 17 31 7 20 10 39 7 41
-3 3 -10 -11 -17 -31z"/>
<path d="M2059 2262 c11 -36 150 -311 151 -296 0 14 -101 233 -123 268 -9 14
-17 30 -17 35 0 5 -4 12 -9 16 -6 3 -7 -6 -2 -23z"/>
<path d="M4866 2277 c3 -10 9 -15 12 -12 3 3 0 11 -7 18 -10 9 -11 8 -5 -6z"/>
<path d="M251 2244 c0 -11 3 -14 6 -6 3 7 2 16 -1 19 -3 4 -6 -2 -5 -13z"/>
<path d="M703 2205 c0 -27 2 -38 4 -22 2 15 2 37 0 50 -2 12 -4 0 -4 -28z"/>
<path d="M1477 2227 c3 -12 20 -41 39 -62 l34 -40 -35 59 c-41 71 -44 73 -38
43z"/>
<path d="M587 2233 c-3 -4 -8 -28 -11 -53 -4 -25 -11 -63 -16 -85 -5 -22 -11
-78 -14 -125 -4 -73 -2 -82 9 -67 12 17 15 12 25 -40 21 -99 59 -246 66 -252
4 -3 4 3 1 14 -4 11 -18 88 -32 170 -33 197 -41 317 -25 384 11 47 10 75 -3
54z"/>
<path d="M236 2194 c-4 -14 -5 -28 -3 -31 3 -2 8 8 11 23 4 14 5 28 3 31 -3 2
-8 -8 -11 -23z"/>
<path d="M876 2155 c6 -65 86 -395 95 -395 4 0 -1 30 -11 68 -10 37 -30 119
-44 182 -14 63 -30 133 -35 155 -10 40 -10 40 -5 -10z"/>
<path d="M2522 2165 c0 -16 2 -22 5 -12 2 9 2 23 0 30 -3 6 -5 -1 -5 -18z"/>
<path d="M394 2085 c0 -49 1 -71 3 -48 2 23 2 64 0 90 -2 26 -3 8 -3 -42z"/>
<path d="M4695 2130 c-3 -5 -1 -10 4 -10 6 0 11 5 11 10 0 6 -2 10 -4 10 -3 0
-8 -4 -11 -10z"/>
<path d="M6579 2086 c-24 -21 -39 -23 -180 -30 -189 -8 -259 -16 -259 -28 0
-5 12 -7 28 -4 39 8 274 26 343 26 49 0 60 -3 69 -21 7 -11 14 -18 17 -16 2 3
0 15 -6 26 -9 16 -8 26 5 46 20 31 17 31 -17 1z"/>
<path d="M1650 1962 c6 -13 14 -21 18 -18 3 4 -2 14 -12 24 -18 16 -18 16 -6
-6z"/>
<path d="M4446 1955 c-10 -7 -15 -18 -11 -24 4 -7 -4 -11 -19 -11 -27 0 -33
-14 -17 -39 5 -8 7 -21 4 -28 -5 -12 -7 -12 -14 -2 -6 11 -12 11 -31 0 -24
-12 -37 -56 -15 -48 7 2 11 11 11 20 -1 9 5 18 13 21 8 3 11 1 8 -4 -3 -6 -1
-10 5 -10 6 0 10 -7 8 -16 -2 -10 3 -19 10 -21 8 -3 10 1 6 11 -3 9 -1 23 6
31 7 9 9 26 5 46 -5 23 -4 30 5 27 14 -4 22 -68 9 -68 -5 0 -9 -7 -9 -15 0
-27 18 -16 25 16 4 18 15 33 25 36 16 4 16 7 4 31 -16 30 -18 52 -6 52 4 0 14
-6 21 -12 11 -11 13 -10 9 2 -6 20 -29 23 -52 5z m11 -57 c-3 -8 -6 -5 -6 6
-1 11 2 17 5 13 3 -3 4 -12 1 -19z"/>
<path d="M402 1925 c0 -22 3 -65 8 -95 6 -48 7 -50 8 -15 0 22 -3 65 -8 95 -6
48 -7 50 -8 15z"/>
<path d="M1680 1926 c0 -2 8 -10 18 -17 15 -13 16 -12 3 4 -13 16 -21 21 -21
13z"/>
<path d="M3485 1900 c-3 -5 1 -10 10 -10 9 0 13 5 10 10 -3 6 -8 10 -10 10 -2
0 -7 -4 -10 -10z"/>
<path d="M4350 1890 c-8 -5 -11 -12 -7 -16 4 -4 13 -2 19 4 15 15 7 24 -12 12z"/>
<path d="M4568 1893 c7 -3 16 -2 19 1 4 3 -2 6 -13 5 -11 0 -14 -3 -6 -6z"/>
<path d="M541 1864 c0 -11 3 -14 6 -6 3 7 2 16 -1 19 -3 4 -6 -2 -5 -13z"/>
<path d="M4295 1840 c4 -6 11 -8 16 -5 14 9 11 15 -7 15 -8 0 -12 -5 -9 -10z"/>
<path d="M3215 1830 c3 -5 8 -10 11 -10 2 0 4 5 4 10 0 6 -5 10 -11 10 -5 0
-7 -4 -4 -10z"/>
<path d="M1555 1815 c-39 -17 -21 -18 25 0 19 7 28 14 20 14 -8 0 -28 -6 -45
-14z"/>
<path d="M3350 1822 c0 -5 6 -17 14 -27 13 -18 14 -18 9 8 -5 24 -23 39 -23
19z"/>
<path d="M2060 1805 c0 -16 16 -20 24 -6 3 5 -1 11 -9 15 -9 3 -15 0 -15 -9z"/>
<path d="M3466 1801 c-4 -7 -5 -15 -2 -18 9 -9 19 4 14 18 -4 11 -6 11 -12 0z"/>
<path d="M3200 1776 c0 -9 5 -16 10 -16 6 0 10 4 10 9 0 6 -4 13 -10 16 -5 3
-10 -1 -10 -9z"/>
<path d="M4300 1781 c0 -6 4 -13 10 -16 6 -3 7 1 4 9 -7 18 -14 21 -14 7z"/>
<path d="M4347 1779 c7 -7 15 -10 18 -7 3 3 -2 9 -12 12 -14 6 -15 5 -6 -5z"/>
<path d="M1455 1770 c-3 -6 1 -7 9 -4 18 7 21 14 7 14 -6 0 -13 -4 -16 -10z"/>
<path d="M3095 1770 c-4 -6 6 -10 22 -10 22 0 25 2 13 10 -19 12 -27 12 -35 0z"/>
<path d="M531 1754 c0 -11 3 -14 6 -6 3 7 2 16 -1 19 -3 4 -6 -2 -5 -13z"/>
<path d="M4271 1754 c0 -11 3 -14 6 -6 3 7 2 16 -1 19 -3 4 -6 -2 -5 -13z"/>
<path d="M2468 1753 c6 -2 18 -2 25 0 6 3 1 5 -13 5 -14 0 -19 -2 -12 -5z"/>
<path d="M3175 1750 c3 -5 8 -10 11 -10 2 0 4 5 4 10 0 6 -5 10 -11 10 -5 0
-7 -4 -4 -10z"/>
<path d="M3560 1739 c7 -11 14 -18 17 -15 8 8 -5 36 -17 36 -7 0 -7 -6 0 -21z"/>
<path d="M6561 1747 c-6 -8 -54 -19 -108 -26 -54 -7 -114 -16 -133 -21 -19 -4
-75 -12 -125 -16 -49 -3 -84 -9 -77 -11 17 -7 211 13 326 33 l90 16 19 -24 19
-23 -6 24 c-3 13 -1 33 5 43 11 21 6 24 -10 5z"/>
<path d="M3419 1708 c-2 -27 -1 -48 2 -48 12 0 15 24 9 60 -6 35 -6 34 -11
-12z"/>
<path d="M3660 1740 c0 -5 5 -10 11 -10 5 0 7 5 4 10 -3 6 -8 10 -11 10 -2 0
-4 -4 -4 -10z"/>
<path d="M3187 1716 c-4 -10 -1 -13 9 -9 15 6 19 23 5 23 -5 0 -11 -7 -14 -14z"/>
<path d="M3360 1720 c0 -5 7 -10 15 -10 8 0 15 5 15 10 0 6 -7 10 -15 10 -8 0
-15 -4 -15 -10z"/>
<path d="M4555 1720 c-3 -5 -1 -10 4 -10 6 0 11 5 11 10 0 6 -2 10 -4 10 -3 0
-8 -4 -11 -10z"/>
<path d="M1997 1713 c-12 -12 -7 -22 8 -17 8 4 15 10 15 15 0 11 -14 12 -23 2z"/>
<path d="M2055 1709 c-11 -16 -1 -19 13 -3 7 8 8 14 3 14 -5 0 -13 -5 -16 -11z"/>
<path d="M3510 1701 c0 -14 28 -40 43 -41 4 0 7 9 7 20 0 21 -20 29 -20 8 0
-8 -7 -5 -15 6 -9 13 -15 15 -15 7z"/>
<path d="M3640 1700 c0 -5 5 -10 10 -10 6 0 10 5 10 10 0 6 -4 10 -10 10 -5 0
-10 -4 -10 -10z"/>
<path d="M3476 1691 c-3 -5 1 -14 9 -21 12 -10 15 -10 15 3 0 19 -16 31 -24
18z"/>
<path d="M1255 1680 c-3 -6 1 -7 9 -4 18 7 21 14 7 14 -6 0 -13 -4 -16 -10z"/>
<path d="M3260 1680 c0 -5 5 -10 11 -10 5 0 7 5 4 10 -3 6 -8 10 -11 10 -2 0
-4 -4 -4 -10z"/>
<path d="M1146 1654 c-4 -14 -5 -29 -2 -31 3 -3 8 7 12 21 3 15 4 29 1 32 -2
3 -8 -7 -11 -22z"/>
<path d="M1528 1673 c7 -3 16 -2 19 1 4 3 -2 6 -13 5 -11 0 -14 -3 -6 -6z"/>
<path d="M1827 1666 c-4 -10 -5 -21 -2 -24 9 -9 17 6 13 25 -3 17 -4 17 -11
-1z"/>
<path d="M1958 1663 c7 -3 16 -2 19 1 4 3 -2 6 -13 5 -11 0 -14 -3 -6 -6z"/>
<path d="M3540 1630 c0 -5 5 -10 10 -10 6 0 10 5 10 10 0 6 -4 10 -10 10 -5 0
-10 -4 -10 -10z"/>
<path d="M1515 1600 c-3 -6 1 -7 9 -4 18 7 21 14 7 14 -6 0 -13 -4 -16 -10z"/>
<path d="M1577 1603 c-10 -9 -9 -23 2 -23 5 0 11 7 15 15 5 15 -5 20 -17 8z"/>
<path d="M1635 1601 c-3 -5 -1 -12 5 -16 5 -3 10 1 10 9 0 18 -6 21 -15 7z"/>
<path d="M3508 1603 c7 -3 16 -2 19 1 4 3 -2 6 -13 5 -11 0 -14 -3 -6 -6z"/>
<path d="M1385 1590 c3 -5 8 -10 11 -10 2 0 4 5 4 10 0 6 -5 10 -11 10 -5 0
-7 -4 -4 -10z"/>
<path d="M1250 1580 c0 -5 5 -10 11 -10 5 0 7 5 4 10 -3 6 -8 10 -11 10 -2 0
-4 -4 -4 -10z"/>
<path d="M1480 1565 c-10 -13 -9 -15 9 -15 11 0 21 4 21 9 0 18 -18 21 -30 6z"/>
<path d="M1445 1539 c-4 -6 -5 -12 -2 -15 2 -3 7 2 10 11 7 17 1 20 -8 4z"/>
<path d="M2020 1530 c0 -5 5 -10 10 -10 6 0 10 5 10 10 0 6 -4 10 -10 10 -5 0
-10 -4 -10 -10z"/>
<path d="M1680 1524 c0 -7 27 -34 34 -34 13 0 5 16 -14 28 -11 7 -20 10 -20 6z"/>
<path d="M1245 1500 c3 -5 8 -10 11 -10 2 0 4 5 4 10 0 6 -5 10 -11 10 -5 0
-7 -4 -4 -10z"/>
<path d="M1370 1499 c0 -5 5 -7 10 -4 6 3 10 8 10 11 0 2 -4 4 -10 4 -5 0 -10
-5 -10 -11z"/>
<path d="M1411 1498 c0 -10 -5 -18 -11 -18 -5 0 -10 -10 -10 -22 0 -20 1 -21
16 -6 9 9 14 26 11 39 -2 15 -5 17 -6 7z"/>
<path d="M3430 1500 c0 -5 5 -10 10 -10 6 0 10 5 10 10 0 6 -4 10 -10 10 -5 0
-10 -4 -10 -10z"/>
<path d="M1445 1491 c-3 -5 -1 -12 5 -16 5 -3 10 1 10 9 0 18 -6 21 -15 7z"/>
<path d="M1331 1465 c-1 -23 2 -26 9 -15 13 20 13 4 0 -21 -9 -16 -7 -19 9
-19 26 0 30 9 24 43 -4 18 -10 26 -19 23 -7 -3 -15 0 -18 7 -2 7 -5 -1 -5 -18z"/>
<path d="M1181 1464 c0 -11 3 -14 6 -6 3 7 2 16 -1 19 -3 4 -6 -2 -5 -13z"/>
<path d="M1950 1470 c0 -5 5 -10 10 -10 6 0 10 5 10 10 0 6 -4 10 -10 10 -5 0
-10 -4 -10 -10z"/>
<path d="M2790 1469 c0 -5 5 -7 10 -4 6 3 10 8 10 11 0 2 -4 4 -10 4 -5 0 -10
-5 -10 -11z"/>
<path d="M1245 1460 c3 -5 8 -10 11 -10 2 0 4 5 4 10 0 6 -5 10 -11 10 -5 0
-7 -4 -4 -10z"/>
<path d="M3048 1433 c7 -3 16 -2 19 1 4 3 -2 6 -13 5 -11 0 -14 -3 -6 -6z"/>
<path d="M2987 1414 c-3 -3 -3 -13 0 -21 5 -12 7 -12 14 -1 15 23 4 40 -14 22z"/>
<path d="M1176 1363 c-6 -14 -5 -15 5 -6 7 7 10 15 7 18 -3 3 -9 -2 -12 -12z"/>
<path d="M2975 1360 c-19 -8 -19 -9 2 -9 12 -1 25 4 28 9 7 12 -2 12 -30 0z"/>
<path d="M3275 1360 c-3 -5 -2 -10 4 -10 5 0 13 5 16 10 3 6 2 10 -4 10 -5 0
-13 -4 -16 -10z"/>
<path d="M1115 1350 c3 -5 8 -10 11 -10 2 0 4 5 4 10 0 6 -5 10 -11 10 -5 0
-7 -4 -4 -10z"/>
<path d="M1170 1320 c0 -5 5 -10 10 -10 6 0 10 5 10 10 0 6 -4 10 -10 10 -5 0
-10 -4 -10 -10z"/>
<path d="M2615 1280 c-3 -6 1 -7 9 -4 18 7 21 14 7 14 -6 0 -13 -4 -16 -10z"/>
<path d="M3440 1130 c0 -5 5 -10 11 -10 5 0 7 5 4 10 -3 6 -8 10 -11 10 -2 0
-4 -4 -4 -10z"/>
<path d="M6570 1053 c-67 -77 -68 -82 -11 -70 l49 9 6 50 c4 28 5 52 3 55 -3
2 -24 -18 -47 -44z"/>
<path d="M3230 710 c0 -16 5 -30 10 -30 6 0 10 14 10 30 0 17 -4 30 -10 30 -5
0 -10 -13 -10 -30z"/>
<path d="M3021 704 c0 -11 3 -14 6 -6 3 7 2 16 -1 19 -3 4 -6 -2 -5 -13z"/>
<path d="M3182 693 c14 -17 28 -16 28 1 0 8 -9 14 -19 13 -15 -1 -17 -4 -9
-14z"/>
<path d="M4570 689 c0 -5 5 -7 10 -4 6 3 10 8 10 11 0 2 -4 4 -10 4 -5 0 -10
-5 -10 -11z"/>
<path d="M2836 664 c-9 -24 -7 -27 9 -10 17 17 19 26 6 26 -5 0 -12 -7 -15
-16z"/>
<path d="M3260 671 c0 -7 -4 -9 -10 -6 -5 3 -10 2 -10 -4 0 -5 4 -12 9 -15 10
-6 25 24 16 32 -3 3 -5 0 -5 -7z"/>
<path d="M2576 645 c-9 -26 -7 -32 5 -12 6 10 9 21 6 23 -2 3 -7 -2 -11 -11z"/>
<path d="M950 626 c0 -8 5 -18 10 -21 6 -3 10 3 10 14 0 12 -4 21 -10 21 -5 0
-10 -6 -10 -14z"/>
<path d="M2650 620 c0 -5 5 -10 11 -10 5 0 7 5 4 10 -3 6 -8 10 -11 10 -2 0
-4 -4 -4 -10z"/>
<path d="M2385 580 c-3 -6 1 -7 9 -4 18 7 21 14 7 14 -6 0 -13 -4 -16 -10z"/>
<path d="M2290 513 c0 -4 5 -15 10 -23 8 -13 10 -13 10 2 0 9 -4 20 -10 23 -5
3 -10 3 -10 -2z"/>
<path d="M3112 428 c5 -15 28 -18 29 -3 0 6 -7 12 -17 13 -10 3 -15 -1 -12
-10z"/>
<path d="M3075 420 c-3 -5 1 -10 9 -10 9 0 16 5 16 10 0 6 -4 10 -9 10 -6 0
-13 -4 -16 -10z"/>
<path d="M3130 380 c20 -13 40 -13 40 0 0 6 -12 10 -27 10 -22 0 -25 -2 -13
-10z"/>
<path d="M3090 360 c0 -5 5 -10 10 -10 6 0 10 5 10 10 0 6 -4 10 -10 10 -5 0
-10 -4 -10 -10z"/>
<path d="M4181 344 c0 -11 3 -14 6 -6 3 7 2 16 -1 19 -3 4 -6 -2 -5 -13z"/>
<path d="M2155 340 c-3 -5 1 -10 9 -10 9 0 16 5 16 10 0 6 -4 10 -9 10 -6 0
-13 -4 -16 -10z"/>
<path d="M1160 300 c0 -5 5 -10 10 -10 6 0 10 5 10 10 0 6 -4 10 -10 10 -5 0
-10 -4 -10 -10z"/>
<path d="M5224 275 c-4 -14 -4 -29 0 -32 3 -4 6 3 6 13 0 11 5 25 12 32 9 9 9
12 0 12 -6 0 -14 -11 -18 -25z"/>
<path d="M4080 280 c0 -5 7 -10 15 -10 8 0 15 5 15 10 0 6 -7 10 -15 10 -8 0
-15 -4 -15 -10z"/>
<path d="M4125 260 c-3 -5 -12 -7 -19 -4 -7 3 -19 -3 -27 -12 -13 -16 -12 -17
11 -10 14 4 31 8 38 8 6 1 12 7 12 15 0 15 -6 17 -15 3z"/>
<path d="M3786 245 c-8 -21 -8 -159 0 -208 l7 -37 58 0 c50 0 59 3 59 18 0 12
-3 13 -8 5 -5 -8 -13 5 -22 35 -7 26 -17 54 -22 62 -5 8 -17 42 -27 75 -19 61
-34 78 -45 50z"/>
<path d="M4170 239 c0 -5 5 -7 10 -4 6 3 10 8 10 11 0 2 -4 4 -10 4 -5 0 -10
-5 -10 -11z"/>
<path d="M4066 186 c9 -29 14 -33 24 -16 7 12 11 12 26 -1 16 -13 17 -12 11 4
-4 10 -7 22 -7 25 0 4 -14 7 -30 8 -27 1 -30 -2 -24 -20z"/>
<path d="M4880 200 c0 -5 5 -10 10 -10 6 0 10 5 10 10 0 6 -4 10 -10 10 -5 0
-10 -4 -10 -10z"/>
<path d="M4935 190 c-3 -5 -1 -10 4 -10 6 0 11 5 11 10 0 6 -2 10 -4 10 -3 0
-8 -4 -11 -10z"/>
<path d="M4330 180 c0 -5 5 -10 10 -10 6 0 10 5 10 10 0 6 -4 10 -10 10 -5 0
-10 -4 -10 -10z"/>
<path d="M4400 183 c1 -24 16 -29 34 -12 19 19 19 19 -7 19 -15 0 -27 -3 -27
-7z"/>
<path d="M4375 170 c-3 -5 -1 -10 4 -10 6 0 11 5 11 10 0 6 -2 10 -4 10 -3 0
-8 -4 -11 -10z"/>
<path d="M4165 160 c-3 -5 -1 -10 4 -10 6 0 11 5 11 10 0 6 -2 10 -4 10 -3 0
-8 -4 -11 -10z"/>
<path d="M4285 160 c-3 -5 -1 -10 4 -10 6 0 11 5 11 10 0 6 -2 10 -4 10 -3 0
-8 -4 -11 -10z"/>
<path d="M4890 140 c0 -5 5 -10 11 -10 5 0 7 5 4 10 -3 6 -8 10 -11 10 -2 0
-4 -4 -4 -10z"/>
<path d="M3915 130 c-8 -13 5 -13 25 0 13 8 13 10 -2 10 -9 0 -20 -4 -23 -10z"/>
<path d="M4326 131 c-4 -5 -2 -12 3 -15 5 -4 12 -2 15 3 4 5 2 12 -3 15 -5 4
-12 2 -15 -3z"/>
<path d="M4950 101 c0 -12 5 -21 10 -21 6 0 10 6 10 14 0 8 -4 18 -10 21 -5 3
-10 -3 -10 -14z"/>
<path d="M1134 96 c-9 -24 0 -71 14 -69 6 2 12 -4 12 -12 0 -8 5 -15 10 -15 6
0 10 5 10 12 0 9 3 9 12 0 20 -20 32 -13 13 8 -10 11 -26 20 -35 20 -11 0 -20
10 -22 24 -4 19 -1 23 11 18 14 -5 14 -3 2 11 -16 21 -20 21 -27 3z"/>
<path d="M3916 83 c-6 -14 -5 -15 5 -6 7 7 10 15 7 18 -3 3 -9 -2 -12 -12z"/>
<path d="M3951 86 c-10 -12 -8 -13 8 -9 12 3 18 9 15 14 -7 12 -10 11 -23 -5z"/>
<path d="M1182 70 c0 -14 2 -19 5 -12 2 6 2 18 0 25 -3 6 -5 1 -5 -13z"/>
<path d="M1205 60 c-3 -5 -1 -10 4 -10 6 0 11 5 11 10 0 6 -2 10 -4 10 -3 0
-8 -4 -11 -10z"/>
<path d="M5460 31 c0 -17 5 -31 10 -31 6 0 10 11 10 24 0 14 -4 28 -10 31 -6
4 -10 -7 -10 -24z"/>
<path d="M3935 40 c-3 -5 1 -10 9 -10 9 0 16 5 16 10 0 6 -4 10 -9 10 -6 0
-13 -4 -16 -10z"/>
<path d="M5238 43 c6 -2 18 -2 25 0 6 3 1 5 -13 5 -14 0 -19 -2 -12 -5z"/>
<path d="M1240 32 c0 -5 7 -9 15 -9 8 0 15 4 15 9 0 4 -7 8 -15 8 -8 0 -15 -4
-15 -8z"/>
<path d="M3981 24 c0 -11 3 -14 6 -6 3 7 2 16 -1 19 -3 4 -6 -2 -5 -13z"/>
</g>
</svg>
